<svg width="42" height="42" viewBox="0 0 42 42" fill="none" xmlns="http://www.w3.org/2000/svg">
<path d="M0 21C0 9.40202 9.40202 0 21 0C32.598 0 42 9.40202 42 21C42 32.598 32.598 42 21 42C9.40202 42 0 32.598 0 21Z" fill="#C2B3A2"/>
<path d="M14.8841 9.41291C14.7704 9.79495 14.5471 10.3257 14.2407 11.0543C14.2171 11.1104 14.193 11.1676 14.1685 11.226C13.4073 13.0372 12.3223 15.6918 12.5188 18.4021C12.5645 20.7374 12.1577 22.4734 11.7137 23.6164C11.49 24.1924 11.2601 24.6096 11.0805 24.874C11.0662 24.8952 11.0523 24.915 11.0391 24.9336C10.8934 24.7282 10.7177 24.3435 10.532 23.7136C10.2316 22.6949 9.98801 21.3536 9.70523 19.7963C9.61163 19.2808 9.51372 18.7417 9.40804 18.1827C9.63197 15.7752 10.7188 13.3128 12.0166 11.577C12.6775 10.693 13.3523 10.0527 13.9352 9.70027C14.4304 9.40085 14.7275 9.37944 14.8841 9.41291ZM14.9599 9.05424C14.96 9.05415 14.9602 9.05656 14.96 9.06174C14.9597 9.05692 14.9598 9.05433 14.9599 9.05424ZM10.8526 25.1567C10.8526 25.1561 10.8582 25.1507 10.8691 25.1422C10.858 25.153 10.8525 25.1573 10.8526 25.1567Z" stroke="#282323" stroke-width="2"/>
<path d="M15.1198 9.63616C16.6053 8.94244 18.7773 8.40001 20.5798 8.40001C22.5076 8.40001 24.483 8.84997 26.0398 9.63616M11.7598 22.7494C13.6559 25.2391 16.8983 26.88 20.5798 26.88C24.2612 26.88 27.5036 25.2391 29.3998 22.7494" stroke="#282323" stroke-width="2"/>
<path d="M28.5601 34.44C28.5601 30.7834 27.5644 27.4924 25.9758 25.2M12.6001 34.44C12.6001 30.7834 13.5958 27.4924 15.1844 25.2" stroke="#282323" stroke-width="2"/>
<circle cx="16.8001" cy="15.96" r="1" stroke="#282323" stroke-width="1.36"/>
<circle cx="24.3602" cy="15.96" r="1" stroke="#282323" stroke-width="1.36"/>
<path d="M20.0598 20.9926C20.3502 21.2721 20.8095 21.2721 21.0998 20.9926L21.892 20.2304C22.3785 19.7623 22.0471 18.94 21.3719 18.94H19.7877C19.1125 18.94 18.7811 19.7623 19.2676 20.2304L20.0598 20.9926Z" fill="#282323" stroke="#282323" stroke-width="0.5"/>
<path d="M20.2679 29.3503C20.4505 29.4962 20.7098 29.4962 20.8923 29.3503L22.7684 27.8505C23.1376 27.5554 22.9289 26.96 22.4562 26.96H18.704C18.2313 26.96 18.0226 27.5554 18.3918 27.8505L20.2679 29.3503Z" fill="#C7A57E" stroke="#282323"/>
<path d="M21.1996 29.2959L23.5469 33.94H17.6128L19.9601 29.2959C20.1287 29.3821 20.3458 29.462 20.5798 29.462C20.8138 29.462 21.0309 29.3821 21.1996 29.2959Z" fill="#C7A57E" stroke="#282323"/>
<path d="M26.2755 9.41291C26.3893 9.79495 26.6125 10.3257 26.919 11.0543C26.9426 11.1104 26.9667 11.1676 26.9912 11.226C27.7523 13.0372 28.8374 15.6918 28.6409 18.4021C28.5952 20.7374 29.002 22.4734 29.4459 23.6164C29.6697 24.1924 29.8996 24.6096 30.0791 24.874C30.0935 24.8952 30.1073 24.915 30.1206 24.9336C30.2663 24.7282 30.4419 24.3435 30.6277 23.7136C30.9281 22.6949 31.1717 21.3536 31.4544 19.7963C31.548 19.2808 31.6459 18.7417 31.7516 18.1827C31.5277 15.7752 30.4408 13.3128 29.1431 11.577C28.4822 10.693 27.8073 10.0527 27.2244 9.70027C26.7292 9.40085 26.4322 9.37944 26.2755 9.41291ZM26.1997 9.05424C26.1996 9.05415 26.1995 9.05656 26.1996 9.06174C26.1999 9.05692 26.1998 9.05433 26.1997 9.05424ZM30.3071 25.1567C30.307 25.1561 30.3015 25.1507 30.2906 25.1422C30.3017 25.153 30.3071 25.1573 30.3071 25.1567Z" stroke="#282323" stroke-width="2"/>
</svg>
