<svg width="42" height="42" viewBox="0 0 42 42" fill="none" xmlns="http://www.w3.org/2000/svg">
<path d="M0 21C0 9.40202 9.40202 0 21 0C32.598 0 42 9.40202 42 21C42 32.598 32.598 42 21 42C9.40202 42 0 32.598 0 21Z" fill="#C2B3A2"/>
<g clip-path="url(#clip0_1_72)">
<path d="M34.4401 17.3156C34.4401 20.3383 33.7095 23.2557 31.7521 25.404C21.0001 34.8166 25.1377 29.6824 21.0001 29.6824C16.9383 29.6824 21.0001 34.8166 10.2481 25.404C8.20885 23.2356 7.56006 20.4082 7.56006 17.3156C7.56006 10.4855 13.5774 17.3156 21.0001 17.3156C28.4228 17.3156 34.4401 10.4855 34.4401 17.3156Z" fill="#BB5C5C"/>
<path d="M21.8401 16.8C21.8401 20.9753 18.6434 24.36 14.7001 24.36C10.7567 24.36 7.56006 20.9753 7.56006 16.8C7.56006 12.6247 10.7567 9.23999 14.7001 9.23999C18.6434 9.23999 21.8401 12.6247 21.8401 16.8Z" fill="#BB5C5C"/>
<path d="M27.3002 24.36C31.2435 24.36 34.4402 20.9753 34.4402 16.8C34.4402 12.6247 31.2435 9.23999 27.3002 9.23999C23.3569 9.23999 20.1602 12.6247 20.1602 16.8C20.1602 20.9753 23.3569 24.36 27.3002 24.36Z" fill="#BB5C5C"/>
<path d="M20.9999 34.44L31.9118 24.99H10.088L20.9999 34.44Z" fill="#BB5C5C"/>
</g>
<defs>
<clipPath id="clip0_1_72">
<rect width="28" height="26" fill="white" transform="translate(7 9)"/>
</clipPath>
</defs>
</svg>
