<svg width="185" height="72" viewBox="0 0 185 72" fill="none" xmlns="http://www.w3.org/2000/svg">
<path d="M7.84863 34.0264C8.00163 33.292 8.38411 32.6953 8.99609 32.2363C9.63867 31.7467 10.3577 31.3031 11.1533 30.9053C11.9795 30.5075 12.8363 30.1403 13.7236 29.8037C14.611 29.4365 15.4219 29.054 16.1562 28.6562C16.9212 28.2585 17.5485 27.7995 18.0381 27.2793C18.5277 26.7285 18.7725 26.0706 18.7725 25.3057C18.7725 24.3265 18.5124 23.5156 17.9922 22.873C17.5026 22.2305 16.8294 21.6797 15.9727 21.2207C15.1465 20.7617 14.1979 20.3792 13.127 20.0732C12.056 19.7673 10.9544 19.4613 9.82227 19.1553C8.7207 18.8187 7.63444 18.4668 6.56348 18.0996C5.49251 17.7018 4.52865 17.2122 3.67188 16.6309C2.8457 16.0495 2.17253 15.3457 1.65234 14.5195C1.16276 13.6934 0.917969 12.6683 0.917969 11.4443C0.917969 10.4346 1.11686 9.486 1.51465 8.59863C1.94303 7.68066 2.49382 6.82389 3.16699 6.02832C3.87077 5.20215 4.66634 4.45247 5.55371 3.7793C6.47168 3.10612 7.42025 2.54004 8.39941 2.08105C9.40918 1.62207 10.4189 1.27018 11.4287 1.02539C12.4385 0.75 13.3717 0.612305 14.2285 0.612305H14.7334C15.0088 0.704102 15.376 0.857096 15.835 1.07129C16.2939 1.28548 16.7376 1.49967 17.166 1.71387C17.5944 1.89746 17.9616 2.08105 18.2676 2.26465C18.5736 2.41764 18.7266 2.50944 18.7266 2.54004V3.5957C18.1452 3.6569 17.3955 3.7793 16.4775 3.96289C15.5596 4.11589 14.5957 4.33008 13.5859 4.60547C12.5762 4.88086 11.5511 5.23275 10.5107 5.66113C9.47038 6.05892 8.53711 6.5332 7.71094 7.08398C6.88477 7.63477 6.21159 8.27734 5.69141 9.01172C5.17122 9.71549 4.91113 10.5264 4.91113 11.4443C4.91113 12.7601 5.37012 13.8005 6.28809 14.5654C7.20605 15.2998 8.35352 15.9118 9.73047 16.4014C11.1074 16.891 12.6068 17.3346 14.2285 17.7324C15.8809 18.0996 17.3955 18.5586 18.7725 19.1094C20.1494 19.6296 21.2969 20.3333 22.2148 21.2207C23.1328 22.0775 23.5918 23.2402 23.5918 24.709C23.5918 25.5046 23.347 26.346 22.8574 27.2334C22.3984 28.0902 21.7712 28.9469 20.9756 29.8037C20.2106 30.6299 19.3385 31.4255 18.3594 32.1904C17.3802 32.9554 16.3704 33.6286 15.3301 34.21C14.3203 34.7607 13.3258 35.2197 12.3467 35.5869C11.3675 35.9235 10.4954 36.0918 9.73047 36.0918C9.48568 36.0918 9.22559 36.0612 8.9502 36C8.6748 35.9388 8.43001 35.847 8.21582 35.7246C8.03223 35.5716 7.87923 35.3574 7.75684 35.082C7.66504 34.8066 7.69564 34.4548 7.84863 34.0264ZM35.265 35.2188C34.8484 35.5833 34.4057 35.4141 33.9369 34.7109C33.4942 34.0078 33.0385 32.9531 32.5697 31.5469C32.101 30.1146 31.6322 28.4089 31.1635 26.4297C30.7208 24.4505 30.2911 22.3542 29.8744 20.1406C29.4577 17.9271 29.0541 15.6875 28.6635 13.4219C28.2989 11.1302 27.9734 8.98177 27.6869 6.97656C27.6869 6.61198 27.6739 6.2474 27.6479 5.88281C27.6479 5.49219 27.6869 5.14062 27.765 4.82812C27.8692 4.48958 28.0385 4.1901 28.2729 3.92969C28.5333 3.66927 28.9239 3.47396 29.4447 3.34375C29.4968 3.31771 29.601 3.34375 29.7572 3.42188C29.9395 3.47396 30.1218 3.55208 30.3041 3.65625C30.4864 3.73438 30.6426 3.82552 30.7729 3.92969C30.9291 4.03385 31.0333 4.125 31.0854 4.20312C30.7468 9.07292 31.3067 13.8125 32.765 18.4219C32.8432 18.3438 33.0515 18.0833 33.39 17.6406C33.7286 17.1719 34.1583 16.638 34.6791 16.0391C35.1999 15.4141 35.7859 14.75 36.4369 14.0469C37.114 13.3438 37.8171 12.6927 38.5463 12.0938C39.2755 11.4948 40.0046 11 40.7338 10.6094C41.463 10.1927 42.1661 9.98438 42.8432 9.98438C43.2338 9.98438 43.6114 10.0755 43.976 10.2578C44.3666 10.4401 44.5619 10.7917 44.5619 11.3125C44.5619 11.3646 44.5489 11.4427 44.5229 11.5469C44.4968 11.625 44.4838 11.6901 44.4838 11.7422C44.0671 12.1068 43.4291 12.6667 42.5697 13.4219C41.7364 14.1771 40.851 15.0234 39.9135 15.9609C38.976 16.8984 38.0775 17.875 37.2182 18.8906C36.3588 19.9062 35.7077 20.8698 35.265 21.7812C35.1869 21.9375 35.1609 22.0807 35.1869 22.2109C35.213 22.3151 35.239 22.4453 35.265 22.6016C35.5515 22.7057 36.0072 22.862 36.6322 23.0703C37.2572 23.2786 37.9473 23.526 38.7025 23.8125C39.4577 24.0729 40.265 24.3594 41.1244 24.6719C41.9838 24.9583 42.7911 25.2448 43.5463 25.5312C44.3015 25.8177 44.9786 26.0781 45.5775 26.3125C46.2025 26.5208 46.6713 26.6771 46.9838 26.7812C47.3484 26.9375 47.6479 27.0417 47.8822 27.0938C48.1166 27.1458 48.2989 27.224 48.4291 27.3281C48.5593 27.4062 48.6505 27.5234 48.7025 27.6797C48.7546 27.8359 48.7807 28.0703 48.7807 28.3828C48.7807 29.138 48.5984 29.6328 48.2338 29.8672C47.8692 30.1016 47.3484 30.2188 46.6713 30.2188C44.6661 30.0885 42.6999 29.6719 40.7729 28.9688C38.8458 28.2396 36.8926 27.3672 34.9135 26.3516C34.8354 26.8464 34.8614 27.4193 34.9916 28.0703C35.1479 28.7214 35.3301 29.3724 35.5385 30.0234C35.7468 30.6745 35.9421 31.3125 36.1244 31.9375C36.3327 32.5625 36.4499 33.1224 36.476 33.6172C36.5281 34.112 36.476 34.5026 36.3197 34.7891C36.1635 35.0755 35.8119 35.2188 35.265 35.2188ZM73.2494 13.8906C73.2494 13.1354 73.1973 12.4062 73.0932 11.7031C72.989 10.974 72.963 10.3359 73.015 9.78906C73.0671 9.21615 73.2624 8.76042 73.601 8.42188C73.9656 8.08333 74.6166 7.91406 75.5541 7.91406C75.8406 8.51302 76.114 9.42448 76.3744 10.6484C76.6609 11.8724 76.9343 13.2786 77.1947 14.8672C77.4551 16.4557 77.7025 18.1875 77.9369 20.0625C78.1713 21.9115 78.3796 23.7734 78.5619 25.6484C78.7702 27.5234 78.9395 29.3724 79.0697 31.1953C79.226 32.9922 79.3432 34.6328 79.4213 36.1172C78.5619 36.6901 77.8718 36.7292 77.351 36.2344C76.8301 35.7396 76.4005 34.9062 76.0619 33.7344C75.7234 32.5365 75.463 31.0911 75.2807 29.3984C75.0984 27.6797 74.9161 25.9089 74.7338 24.0859C74.5775 22.237 74.3822 20.4271 74.1479 18.6562C73.9135 16.8594 73.614 15.2708 73.2494 13.8906ZM84.39 13.8906C84.39 13.1354 84.338 12.4062 84.2338 11.7031C84.1296 10.974 84.1036 10.3359 84.1557 9.78906C84.2077 9.21615 84.4031 8.76042 84.7416 8.42188C85.1062 8.08333 85.7572 7.91406 86.6947 7.91406C86.9812 8.51302 87.2546 9.42448 87.515 10.6484C87.8015 11.8724 88.0749 13.2786 88.3354 14.8672C88.5958 16.4557 88.8432 18.1875 89.0775 20.0625C89.3119 21.9115 89.5202 23.7734 89.7025 25.6484C89.9109 27.5234 90.0801 29.3724 90.2104 31.1953C90.3666 32.9922 90.4838 34.6328 90.5619 36.1172C89.7025 36.6901 89.0124 36.7292 88.4916 36.2344C87.9708 35.7396 87.5411 34.9062 87.2025 33.7344C86.864 32.5365 86.6036 31.0911 86.4213 29.3984C86.239 27.6797 86.0567 25.9089 85.8744 24.0859C85.7182 22.237 85.5229 20.4271 85.2885 18.6562C85.0541 16.8594 84.7546 15.2708 84.39 13.8906ZM94.2025 5.14062C94.2025 4.33333 94.3458 3.66927 94.6322 3.14844C94.9447 2.6276 95.3614 2.21094 95.8822 1.89844C96.4031 1.5599 96.976 1.3125 97.601 1.15625C98.252 1 98.9161 0.895833 99.5932 0.84375C100.296 0.765625 100.973 0.739583 101.624 0.765625C102.275 0.765625 102.874 0.765625 103.421 0.765625C104.489 0.765625 105.557 0.869792 106.624 1.07812C107.692 1.28646 108.63 1.65104 109.437 2.17188C110.27 2.69271 110.947 3.39583 111.468 4.28125C111.989 5.14062 112.249 6.22135 112.249 7.52344C112.249 8.66927 112.015 9.8151 111.546 10.9609C111.104 12.0807 110.518 13.1615 109.788 14.2031C109.085 15.2188 108.278 16.1562 107.367 17.0156C106.455 17.849 105.544 18.5651 104.632 19.1641C103.747 19.763 102.887 20.2318 102.054 20.5703C101.247 20.9089 100.57 21.0391 100.023 20.9609C99.7104 21.9766 99.515 23.0703 99.4369 24.2422C99.3848 25.388 99.3718 26.5208 99.3979 27.6406C99.4239 28.7344 99.463 29.7891 99.515 30.8047C99.5671 31.7943 99.515 32.6536 99.3588 33.3828C99.2286 34.0859 98.9682 34.6198 98.5775 34.9844C98.1869 35.3229 97.588 35.4271 96.7807 35.2969C96.5463 33.4479 96.364 31.5729 96.2338 29.6719C96.1296 27.7708 96.0385 25.8828 95.9604 24.0078C95.8822 22.1328 95.8041 20.3099 95.726 18.5391C95.6739 16.7422 95.5827 15.0365 95.4525 13.4219C95.3484 11.8073 95.1921 10.2969 94.9838 8.89062C94.7755 7.48438 94.515 6.23438 94.2025 5.14062ZM103.851 4.125C103.46 4.125 102.979 4.13802 102.406 4.16406C101.833 4.1901 101.273 4.28125 100.726 4.4375C100.205 4.56771 99.7624 4.8151 99.3979 5.17969C99.0333 5.51823 98.851 6.01302 98.851 6.66406V16.8984C99.9187 16.8984 101.051 16.612 102.249 16.0391C103.447 15.4661 104.541 14.737 105.531 13.8516C106.52 12.9661 107.341 11.9635 107.992 10.8438C108.643 9.72396 108.968 8.61719 108.968 7.52344C108.968 6.71615 108.812 6.09115 108.499 5.64844C108.213 5.20573 107.822 4.86719 107.328 4.63281C106.859 4.39844 106.325 4.25521 105.726 4.20312C105.127 4.15104 104.502 4.125 103.851 4.125ZM115.851 28.0703C115.851 26.4557 116.229 24.9583 116.984 23.5781C117.739 22.1719 118.729 20.974 119.953 19.9844C121.203 18.9688 122.596 18.1745 124.132 17.6016C125.695 17.0286 127.27 16.7422 128.859 16.7422C129.744 16.7422 130.525 17.0286 131.203 17.6016C131.906 18.1745 132.492 18.8776 132.96 19.7109C133.429 20.5182 133.781 21.3776 134.015 22.2891C134.275 23.2005 134.406 23.9948 134.406 24.6719C134.406 26.1302 134.054 27.5495 133.351 28.9297C132.648 30.2839 131.736 31.4948 130.617 32.5625C129.497 33.6042 128.234 34.4505 126.828 35.1016C125.421 35.7526 124.015 36.0781 122.609 36.0781C121.359 36.0781 120.304 35.8698 119.445 35.4531C118.585 35.0104 117.895 34.4375 117.374 33.7344C116.854 33.0052 116.463 32.1589 116.203 31.1953C115.968 30.2057 115.851 29.1641 115.851 28.0703ZM119.171 28.4609C119.171 29.138 119.223 29.737 119.328 30.2578C119.458 30.7526 119.666 31.1823 119.953 31.5469C120.265 31.9115 120.669 32.1979 121.163 32.4062C121.658 32.5885 122.27 32.6797 122.999 32.6797C123.963 32.6797 124.926 32.4193 125.89 31.8984C126.854 31.3516 127.713 30.6745 128.468 29.8672C129.249 29.0339 129.874 28.1224 130.343 27.1328C130.812 26.1432 131.046 25.1797 131.046 24.2422C131.046 23.8255 131.007 23.3698 130.929 22.875C130.851 22.3802 130.721 21.9245 130.538 21.5078C130.356 21.0911 130.096 20.7396 129.757 20.4531C129.419 20.1667 128.989 20.0234 128.468 20.0234C127.999 20.0234 127.44 20.1797 126.788 20.4922C126.163 20.8047 125.499 21.2083 124.796 21.7031C124.119 22.1979 123.442 22.7578 122.765 23.3828C122.114 24.0078 121.515 24.6328 120.968 25.2578C120.421 25.8828 119.979 26.4818 119.64 27.0547C119.328 27.6276 119.171 28.0964 119.171 28.4609ZM137.929 19.5938C137.929 19.3594 137.942 19.125 137.968 18.8906C137.994 18.6302 138.046 18.4089 138.124 18.2266C138.203 18.0182 138.32 17.849 138.476 17.7188C138.658 17.5885 138.906 17.5234 139.218 17.5234C139.479 17.5234 139.765 17.7318 140.078 18.1484C140.416 18.5391 140.755 19.0469 141.093 19.6719C141.432 20.2708 141.757 20.9349 142.07 21.6641C142.408 22.3932 142.695 23.0703 142.929 23.6953C143.19 24.2943 143.398 24.8151 143.554 25.2578C143.71 25.7005 143.802 25.9349 143.828 25.9609C144.166 25.0495 144.544 24.0599 144.96 22.9922C145.377 21.9245 145.885 20.9349 146.484 20.0234C147.109 19.0859 147.838 18.3047 148.671 17.6797C149.531 17.0547 150.572 16.7422 151.796 16.7422C152.421 16.7422 153.007 16.8464 153.554 17.0547C154.127 17.237 154.622 17.5234 155.038 17.9141C155.481 18.2786 155.833 18.7214 156.093 19.2422C156.354 19.763 156.484 20.362 156.484 21.0391C156.484 21.612 156.249 22.0156 155.781 22.25C155.338 22.4844 154.83 22.6016 154.257 22.6016H153.867L152.187 20.9219C152.135 20.9219 152.096 20.9089 152.07 20.8828C152.018 20.8828 151.966 20.8828 151.913 20.8828C151.887 20.8568 151.848 20.8438 151.796 20.8438C150.885 20.8438 150.169 21.1042 149.648 21.625C149.153 22.1198 148.775 22.7448 148.515 23.5C148.255 24.2292 148.085 25.0104 148.007 25.8438C147.955 26.651 147.929 27.3932 147.929 28.0703C147.929 28.5911 147.981 29.125 148.085 29.6719C148.19 30.1927 148.307 30.7135 148.437 31.2344C148.567 31.7292 148.684 32.25 148.788 32.7969C148.893 33.3177 148.945 33.8646 148.945 34.4375C148.945 35.5312 148.359 36.0781 147.187 36.0781C146.536 36.0781 145.859 35.7396 145.156 35.0625C144.453 34.3594 143.749 33.474 143.046 32.4062C142.369 31.3385 141.718 30.1667 141.093 28.8906C140.468 27.5885 139.921 26.3255 139.453 25.1016C138.984 23.8776 138.606 22.7708 138.32 21.7812C138.059 20.7917 137.929 20.0625 137.929 19.5938ZM159.031 16.3125C159.031 16.2344 159.044 16.1693 159.07 16.1172C159.07 16.0651 159.083 16 159.109 15.9219C159.213 15.7917 159.369 15.6224 159.578 15.4141C159.786 15.2057 159.916 15.1016 159.968 15.1016H167.82C167.82 14.8151 167.781 14.3594 167.703 13.7344C167.624 13.1094 167.546 12.4193 167.468 11.6641C167.416 10.9089 167.403 10.1276 167.429 9.32031C167.455 8.48698 167.559 7.74479 167.742 7.09375C167.95 6.41667 168.262 5.86979 168.679 5.45312C169.122 5.01042 169.734 4.78906 170.515 4.78906C170.515 7.41927 170.697 9.52865 171.062 11.1172C171.427 12.7057 171.908 13.9297 172.507 14.7891C173.132 15.6484 173.835 16.2083 174.617 16.4688C175.398 16.7292 176.192 16.8464 176.999 16.8203C177.833 16.7682 178.64 16.638 179.421 16.4297C180.203 16.2214 180.893 16.0781 181.492 16C182.117 15.9219 182.611 15.987 182.976 16.1953C183.341 16.3776 183.523 16.8333 183.523 17.5625C183.523 18.1094 183.393 18.5 183.132 18.7344C182.898 18.9688 182.429 19.151 181.726 19.2812C181.518 19.3073 181.166 19.3594 180.671 19.4375C180.203 19.4896 179.669 19.5417 179.07 19.5938C178.471 19.6458 177.833 19.7109 177.156 19.7891C176.479 19.8411 175.841 19.8932 175.242 19.9453C174.643 19.9974 174.096 20.0365 173.601 20.0625C173.106 20.0625 172.742 20.0625 172.507 20.0625C172.507 20.1927 172.494 20.4141 172.468 20.7266C172.442 21.0391 172.429 21.2474 172.429 21.3516C172.429 22.4974 172.611 23.6172 172.976 24.7109C173.341 25.7786 173.731 26.8464 174.148 27.9141C174.591 28.9818 174.994 30.0495 175.359 31.1172C175.723 32.1849 175.906 33.2917 175.906 34.4375C175.906 34.6458 175.88 34.8672 175.828 35.1016C175.802 35.3099 175.723 35.5052 175.593 35.6875C175.489 35.8438 175.32 35.9609 175.085 36.0391C174.877 36.1432 174.578 36.1302 174.187 36C173.197 35.7396 172.455 35.1797 171.96 34.3203C171.492 33.4609 171.14 32.4453 170.906 31.2734C170.671 30.0755 170.515 28.8125 170.437 27.4844C170.359 26.1562 170.229 24.9193 170.046 23.7734C169.89 22.6016 169.63 21.612 169.265 20.8047C168.9 19.9714 168.315 19.4635 167.507 19.2812L159.968 17.5625C159.864 17.5625 159.708 17.4583 159.499 17.25C159.291 17.0156 159.161 16.8464 159.109 16.7422C159.083 16.6901 159.07 16.625 159.07 16.5469C159.044 16.4948 159.031 16.4167 159.031 16.3125Z" fill="#C2B3A1"/>
<path d="M61.9769 18.5947C61.165 19.5651 59.6677 19.5478 58.8792 18.5589L53.1721 11.4017C52.1209 10.0834 53.0735 8.13515 54.7599 8.15463L66.343 8.28842C68.0294 8.30789 68.9353 10.2776 67.8529 11.5713L61.9769 18.5947Z" fill="#C2B3A1"/>
<path d="M58.2399 24.697C58.3895 23.7208 59.2293 23 60.2169 23H60.5H60.784C61.7712 23 62.6107 23.7203 62.7607 24.6961L68.5354 62.26C68.6266 62.8531 68.4466 63.4559 68.0451 63.9019L62.198 70.3977C61.4195 71.2625 60.0699 71.2828 59.2659 70.4417L53.0203 63.9089C52.5912 63.4602 52.395 62.8376 52.489 62.2239L58.2399 24.697Z" fill="#C2B3A1"/>
</svg>
